<svg width="48" height="46" viewBox="0 0 48 46" fill="none" xmlns="http://www.w3.org/2000/svg">
<path fill-rule="evenodd" clip-rule="evenodd" d="M22.927 5.45484C22.9266 5.45516 22.9262 5.45549 22.9258 5.45581L19.9025 8.05833C19.9021 8.05869 19.9017 8.05905 19.9012 8.0594C19.4954 8.41078 18.9623 8.6881 18.453 8.8773C17.9434 9.06666 17.3617 9.20343 16.8325 9.20343H13.5167C12.0373 9.20343 10.8176 10.4231 10.8176 11.9025V15.1801C10.8176 15.7099 10.6804 16.2868 10.4942 16.7899C10.3075 17.2943 10.0375 17.8161 9.70413 18.2162L9.69823 18.2233L7.11389 21.2669C7.1134 21.2674 7.1129 21.268 7.11241 21.2686C6.3154 22.2188 6.3154 23.8197 7.1124 24.7699C7.1129 24.7705 7.11339 24.7711 7.11389 24.7716L9.70417 27.8223C10.0375 28.2223 10.3075 28.7442 10.4942 29.2486C10.6804 29.7516 10.8176 30.3285 10.8176 30.8583V34.136C10.8176 35.6154 12.0373 36.835 13.5167 36.835H16.8325C17.3699 36.835 17.9516 36.9711 18.4619 37.1618C18.9716 37.3522 19.4979 37.6299 19.9012 37.979C19.9016 37.9794 19.902 37.9797 19.9025 37.9801L22.9205 40.5778C22.9216 40.5788 22.9228 40.5798 22.9239 40.5807C23.8959 41.3968 25.5102 41.3901 26.4549 40.5833C26.4552 40.583 26.4556 40.5827 26.4559 40.5824L29.4793 37.9801C29.4798 37.9797 29.4802 37.9794 29.4806 37.979C29.8864 37.6277 30.4195 37.3504 30.9288 37.1612C31.4384 36.9718 32.0201 36.835 32.5492 36.835H35.8075C37.287 36.835 38.5067 35.6153 38.5067 34.136V30.8775C38.5067 30.3401 38.6429 29.7584 38.8335 29.2481C39.024 28.7384 39.3016 28.2121 39.6508 27.8088C39.6511 27.8084 39.6515 27.808 39.6518 27.8076L42.2496 24.7897C42.2506 24.7885 42.2516 24.7874 42.2526 24.7862C43.0686 23.8142 43.0618 22.1997 42.255 21.255C42.2547 21.2547 42.2545 21.2544 42.2542 21.2541L39.6518 18.2309C39.6515 18.2305 39.6511 18.2301 39.6508 18.2297C39.2994 17.8238 39.0221 17.2907 38.8329 16.7814C38.6435 16.2718 38.5067 15.69 38.5067 15.1609V11.9025C38.5067 10.4231 37.287 9.20343 35.8075 9.20343H32.5492C32.0119 9.20343 31.4302 9.06732 30.9199 8.87668C30.4103 8.68628 29.884 8.40867 29.4807 8.05955C29.4802 8.05914 29.4798 8.05874 29.4793 8.05833L26.4577 5.45732C25.4858 4.64148 23.8716 4.64821 22.927 5.45484ZM21.6261 3.93574C23.3254 2.48269 26.0391 2.48876 27.7503 3.93117L27.7583 3.93786L30.7892 6.54696C30.9607 6.69561 31.258 6.86797 31.6198 7.00316C31.9816 7.13832 32.3199 7.20343 32.5492 7.20343H35.8075C38.3915 7.20343 40.5067 9.31847 40.5067 11.9025V15.1609C40.5067 15.3793 40.5712 15.7176 40.7077 16.0848C40.8441 16.452 41.0168 16.7521 41.1633 16.9211L41.1654 16.9236L43.7743 19.9543C45.2273 21.6537 45.2212 24.3674 43.7789 26.0787L43.7722 26.0866L41.1654 29.1149L41.1633 29.1174C41.0146 29.2889 40.8422 29.5862 40.707 29.9481C40.5719 30.3099 40.5067 30.6482 40.5067 30.8775V34.136C40.5067 36.7201 38.3915 38.835 35.8075 38.835H32.5492C32.3309 38.835 31.9926 38.8995 31.6254 39.0359C31.2582 39.1723 30.9582 39.345 30.7892 39.4915L30.7866 39.4937L27.7582 42.1003L27.7558 42.1024C26.0564 43.5556 23.3427 43.5495 21.6314 42.107L21.6236 42.1004L18.5952 39.4937L18.5926 39.4915C18.4211 39.3429 18.1238 39.1705 17.7619 39.0353C17.4001 38.9001 17.0619 38.835 16.8325 38.835H13.5167C10.9328 38.835 8.81757 36.72 8.81757 34.136V30.8583C8.81757 30.6406 8.75345 30.3071 8.61862 29.9429C8.48508 29.5821 8.31551 29.2812 8.17027 29.1058L5.58291 26.0586C4.15855 24.3641 4.15856 21.6744 5.58292 19.9799L5.58611 19.9761L8.1702 16.9328C8.31544 16.7574 8.48504 16.4565 8.61861 16.0956C8.75345 15.7313 8.81757 15.3978 8.81757 15.1801V11.9025C8.81757 9.31848 10.9328 7.20343 13.5167 7.20343H16.8325C17.0509 7.20343 17.3892 7.13898 17.7564 7.00253C18.1236 6.86612 18.4236 6.69343 18.5926 6.54696L18.5952 6.54477L21.6261 3.93574Z" fill="#04485D"/>
<path fill-rule="evenodd" clip-rule="evenodd" d="M26.5782 13.4528C27.8179 13.8766 28.6603 15.2312 28.397 16.5463L27.9722 19.3175H31.4566C32.4048 19.3175 33.2596 19.711 33.785 20.4289C34.3112 21.1479 34.4233 22.0791 34.1094 22.9773L31.9762 29.4916C31.7672 30.283 31.25 30.9242 30.6515 31.3606C30.044 31.8035 29.2809 32.0892 28.505 32.0892H25.1125C24.7508 32.0892 24.3239 32.033 23.923 31.9198C23.5645 31.8185 23.1077 31.6388 22.7541 31.312L20.0162 29.1973L21.2388 27.6144L24.0685 29.8001L24.1124 29.844C24.1126 29.8439 24.1358 29.8642 24.1978 29.8952C24.2653 29.9288 24.356 29.9638 24.4668 29.9951C24.6935 30.0592 24.9375 30.0892 25.1125 30.0892H28.505C28.8024 30.0892 29.1606 29.9725 29.4731 29.7446C29.785 29.5171 29.9796 29.2327 30.0457 28.9684L30.0543 28.9337L32.2158 22.3334L32.2197 22.3222C32.3414 21.9783 32.2701 21.7455 32.171 21.6101C32.0687 21.4703 31.8501 21.3175 31.4566 21.3175H27.8725C26.7359 21.3175 25.83 20.3523 25.979 19.124L25.9809 19.1084L26.4284 16.1887L26.4346 16.1598C26.4942 15.8816 26.2769 15.4604 25.9271 15.3438L25.9081 15.3375L25.8894 15.3304C25.803 15.2977 25.6478 15.2872 25.4543 15.3543C25.2562 15.423 25.1354 15.5325 25.0971 15.5882C25.0969 15.5885 25.0973 15.588 25.0971 15.5882L21.4185 21.0487L19.7598 19.9312L23.4416 14.466C23.7682 13.9848 24.2797 13.6447 24.7993 13.4646C25.3192 13.2844 25.9612 13.2254 26.5782 13.4528Z" fill="#04485D"/>
<path fill-rule="evenodd" clip-rule="evenodd" d="M17.103 19.132C17.0744 19.2215 17.0469 19.3758 17.0469 19.6277V28.406C17.0469 28.6579 17.0744 28.8122 17.103 28.9017C17.1165 28.944 17.129 28.9676 17.136 28.9791C17.1426 28.9897 17.1469 28.9941 17.1496 28.9966C17.1582 29.0045 17.2877 29.1118 17.8486 29.1118H18.7494C19.3017 29.1118 19.4337 29.003 19.4451 28.9924L19.4453 28.9922C19.4486 28.9892 19.4706 28.9694 19.4953 28.8924C19.5239 28.8035 19.5511 28.6516 19.5511 28.406V19.6277C19.5511 19.3787 19.523 19.2261 19.4941 19.1378C19.4694 19.0619 19.4476 19.0428 19.4444 19.04C19.4443 19.0399 19.4442 19.0399 19.4442 19.0398C19.4307 19.0276 19.2967 18.9219 18.7494 18.9219H17.8486C17.2877 18.9219 17.1582 19.0291 17.1496 19.0371C17.1469 19.0395 17.1426 19.0439 17.136 19.0546C17.129 19.0661 17.1165 19.0897 17.103 19.132ZM15.7971 17.5637C16.3731 17.035 17.1445 16.9219 17.8486 16.9219H18.7494C19.448 16.9219 20.2148 17.0366 20.7907 17.561C21.3893 18.1061 21.5511 18.8766 21.5511 19.6277V28.406C21.5511 29.1433 21.3961 29.9114 20.8041 30.4597C20.2309 30.9906 19.4621 31.1118 18.7494 31.1118H17.8486C17.1445 31.1118 16.3731 30.9986 15.7971 30.4699C15.1998 29.9216 15.0469 29.1483 15.0469 28.406V19.6277C15.0469 18.8854 15.1998 18.1121 15.7971 17.5637Z" fill="#04485D"/>
</svg>
