<svg width="40" height="23" viewBox="0 0 40 23" fill="none" xmlns="http://www.w3.org/2000/svg">
<path d="M40 0C39.4122 2.47904 38.809 5.08051 38.1903 7.80439C37.6025 10.5283 37.0611 13.2063 36.5661 15.8383C36.0712 18.4398 35.6535 20.827 35.3132 23H22.3202L21.6705 21.99C22.2274 19.7558 22.9389 17.3839 23.8051 14.8743C24.7022 12.334 25.6613 9.79375 26.6821 7.25349C27.734 4.68263 28.7858 2.2648 29.8376 0H40ZM18.3295 0C17.7417 2.47904 17.1384 5.08051 16.5197 7.80439C15.9319 10.5283 15.3906 13.2063 14.8956 15.8383C14.4006 18.4398 13.983 20.827 13.6427 23H0.649652L0 21.99C0.556845 19.7558 1.26837 17.3839 2.13457 14.8743C3.03171 12.334 3.99072 9.79375 5.0116 7.25349C6.06342 4.68263 7.11524 2.2648 8.16705 0H18.3295Z" fill="#014155"/>
</svg>
