<svg width="604" height="1223" viewBox="0 0 604 1223" fill="none" xmlns="http://www.w3.org/2000/svg">
<path d="M676.999 1222C654.999 1140 643.268 745.999 459 523.999C326.682 364.588 208.847 353.441 175 388C118.195 446 563 530.001 639 95.9999" stroke="#098572" stroke-width="3" stroke-dasharray="10 8"/>
<path d="M240.021 359.856C239.508 359.114 240.161 358.126 241.044 358.307L272.538 364.755C273.404 364.932 273.631 366.062 272.901 366.56L265.997 371.271C265.774 371.424 265.498 371.479 265.233 371.425L245.578 367.401C245.326 367.35 245.103 367.202 244.957 366.99L240.021 359.856Z" fill="#098572"/>
<path d="M264.428 345.865C264.528 345.377 263.93 345.059 263.581 345.414L251.225 357.999C250.948 358.281 251.094 358.759 251.482 358.839L260.868 360.76C261.139 360.816 261.403 360.641 261.458 360.371L264.428 345.865Z" fill="#098572"/>
</svg>
