<svg width="22" height="22" viewBox="0 0 22 22" fill="none" xmlns="http://www.w3.org/2000/svg">
<path fill-rule="evenodd" clip-rule="evenodd" d="M18.3333 1.1H3.66667C2.24914 1.1 1.1 2.24914 1.1 3.66667V18.3333C1.1 19.7509 2.24914 20.9 3.66667 20.9H18.3333C19.7509 20.9 20.9 19.7509 20.9 18.3333V3.66667C20.9 2.24914 19.7509 1.1 18.3333 1.1ZM3.66667 0C1.64162 0 0 1.64162 0 3.66667V18.3333C0 20.3584 1.64162 22 3.66667 22H18.3333C20.3584 22 22 20.3584 22 18.3333V3.66667C22 1.64162 20.3584 0 18.3333 0H3.66667Z" fill="#014257"/>
<path fill-rule="evenodd" clip-rule="evenodd" d="M11 14.8333C13.1171 14.8333 14.8333 13.1171 14.8333 11C14.8333 8.88291 13.1171 7.16667 11 7.16667C8.88291 7.16667 7.16667 8.88291 7.16667 11C7.16667 13.1171 8.88291 14.8333 11 14.8333ZM11 16C13.7614 16 16 13.7614 16 11C16 8.23858 13.7614 6 11 6C8.23858 6 6 8.23858 6 11C6 13.7614 8.23858 16 11 16Z" fill="#014257"/>
<path d="M18 5C18 5.55228 17.5523 6 17 6C16.4477 6 16 5.55228 16 5C16 4.44772 16.4477 4 17 4C17.5523 4 18 4.44772 18 5Z" fill="#014257"/>
</svg>
