<svg width="23" height="22" viewBox="0 0 23 22" fill="none" xmlns="http://www.w3.org/2000/svg">
<path fill-rule="evenodd" clip-rule="evenodd" d="M11 1.75C6.16751 1.75 2.25 5.66751 2.25 10.5C2.25 15.3325 6.16751 19.25 11 19.25C15.8325 19.25 19.75 15.3325 19.75 10.5C19.75 5.66751 15.8325 1.75 11 1.75ZM0.75 10.5C0.75 4.83908 5.33908 0.25 11 0.25C16.6609 0.25 21.25 4.83908 21.25 10.5C21.25 16.1609 16.6609 20.75 11 20.75C5.33908 20.75 0.75 16.1609 0.75 10.5Z" fill="#004155"/>
<path fill-rule="evenodd" clip-rule="evenodd" d="M18.9697 18.4697C19.2626 18.1768 19.7374 18.1768 20.0303 18.4697L22.0303 20.4697C22.3232 20.7626 22.3232 21.2374 22.0303 21.5303C21.7374 21.8232 21.2626 21.8232 20.9697 21.5303L18.9697 19.5303C18.6768 19.2374 18.6768 18.7626 18.9697 18.4697Z" fill="#004155"/>
</svg>
