<svg width="377" height="590" viewBox="0 0 377 590" fill="none" xmlns="http://www.w3.org/2000/svg">
<path d="M-49.0403 589.427C-54.4386 507.505 -58.9706 346.072 78.708 225.699C195.771 123.351 321.877 182.609 342.838 212.255C363.798 241.901 93.928 273.997 -76.5994 38.6112" stroke="#098572" stroke-width="1.3" stroke-dasharray="10 8"/>
<path d="M151.231 174.309C150.423 173.908 150.516 172.728 151.377 172.459L168.599 167.07C169.443 166.807 170.189 167.686 169.791 168.475L167.941 172.146C167.819 172.388 167.605 172.569 167.346 172.65L155.796 176.264C155.55 176.341 155.284 176.32 155.053 176.205L151.231 174.309Z" fill="#098572"/>
<path d="M159.603 159.616C159.454 159.14 158.778 159.151 158.644 159.631L155.988 169.188C155.882 169.57 156.241 169.918 156.619 169.799L161.762 168.191C162.025 168.108 162.172 167.828 162.09 167.564L159.603 159.616Z" fill="#098572"/>
</svg>
