<svg width="227" height="772" viewBox="0 0 227 772" fill="none" xmlns="http://www.w3.org/2000/svg">
<path d="M498 833C468.183 776.161 389.408 484.729 223.107 355.166C103.692 262.13 20.829 276.799 3.80556 309.163C-24.7644 363.478 295.552 339.359 269.8 1" stroke="#014155" stroke-width="3" stroke-dasharray="10 8"/>
<path d="M39.8541 268.977C39.1829 268.376 39.588 267.263 40.4889 267.233L72.6187 266.182C73.5018 266.153 73.9857 267.199 73.3917 267.853L67.7726 274.04C67.5907 274.241 67.3354 274.359 67.065 274.368L47.0135 275.024C46.7559 275.033 46.505 274.941 46.3132 274.769L39.8541 268.977Z" fill="#3D88A0"/>
<path d="M60.3367 249.692C60.3204 249.194 59.6653 249.024 59.4085 249.451L50.3172 264.563C50.1129 264.903 50.366 265.334 50.762 265.321L60.3378 265.007C60.6138 264.998 60.8302 264.767 60.8212 264.491L60.3367 249.692Z" fill="#3D88A0"/>
</svg>
