<svg width="15" height="15" viewBox="0 0 15 15" fill="none" xmlns="http://www.w3.org/2000/svg">
<path fill-rule="evenodd" clip-rule="evenodd" d="M2 4.5C1.72386 4.5 1.5 4.72386 1.5 5V13C1.5 13.2761 1.72386 13.5 2 13.5H10C10.2761 13.5 10.5 13.2761 10.5 13V9H11.5V13C11.5 13.8284 10.8284 14.5 10 14.5H2C1.17157 14.5 0.5 13.8284 0.5 13V5C0.5 4.17157 1.17157 3.5 2 3.5H6V4.5H2Z" fill="black"/>
<path fill-rule="evenodd" clip-rule="evenodd" d="M7.50045 2.50011L12.0005 2.50011C12.2766 2.50011 12.5005 2.72397 12.5005 3.00011L12.5005 7.50011C12.5005 7.77625 12.2766 8.00011 12.0005 8.00011C11.7243 8.00011 11.5005 7.77625 11.5005 7.50011L11.5005 4.20722L6.71297 8.9947L6.00586 8.2876L10.7933 3.50011L7.50045 3.50011C7.22431 3.50011 7.00045 3.27625 7.00045 3.00011C7.00045 2.72397 7.22431 2.50011 7.50045 2.50011Z" fill="black"/>
</svg>
