<svg width="16" height="12" viewBox="0 0 16 12" fill="none" xmlns="http://www.w3.org/2000/svg">
<path fill-rule="evenodd" clip-rule="evenodd" d="M9.49506 0.41132C9.78795 0.118427 10.2628 0.118427 10.5557 0.41132L15.6141 5.46965C15.7547 5.61031 15.8337 5.80107 15.8337 5.99998C15.8337 6.1989 15.7547 6.38966 15.6141 6.53031L10.5557 11.5886C10.2628 11.8815 9.78795 11.8815 9.49506 11.5886C9.20217 11.2958 9.20217 10.8209 9.49506 10.528L14.0231 5.99998L9.49506 1.47198C9.20217 1.17909 9.20217 0.704213 9.49506 0.41132Z" fill="#316D80"/>
<path fill-rule="evenodd" clip-rule="evenodd" d="M0.166992 5.99997C0.166992 5.58576 0.502779 5.24997 0.916992 5.24997H14.942C15.3562 5.24997 15.692 5.58576 15.692 5.99997C15.692 6.41418 15.3562 6.74997 14.942 6.74997H0.916992C0.502779 6.74997 0.166992 6.41418 0.166992 5.99997Z" fill="#316D80"/>
</svg>
