<svg width="32" height="24" viewBox="0 0 32 24" fill="none" xmlns="http://www.w3.org/2000/svg">
<path fill-rule="evenodd" clip-rule="evenodd" d="M0.56434 10.9381C1.15013 10.3523 2.09987 10.3523 2.68566 10.9381L12.269 20.5215C12.8548 21.1072 12.8548 22.057 12.269 22.6428C11.6832 23.2286 10.7335 23.2286 10.1477 22.6428L0.56434 13.0594C-0.0214466 12.4737 -0.0214466 11.5239 0.56434 10.9381Z" fill="#014155"/>
<path fill-rule="evenodd" clip-rule="evenodd" d="M31.4363 1.35475C32.0221 1.94053 32.0221 2.89028 31.4363 3.47607L12.2696 22.6427C11.6839 23.2285 10.7341 23.2285 10.1483 22.6427C9.56254 22.0569 9.56254 21.1072 10.1483 20.5214L29.315 1.35475C29.9008 0.768959 30.8505 0.768959 31.4363 1.35475Z" fill="#014155"/>
</svg>
