<svg width="37" height="23" viewBox="0 0 37 23" fill="none" xmlns="http://www.w3.org/2000/svg">
<path d="M0.846967 19.54L0.824964 19.1628L0.768591 19.0172L0.592945 18.9057L0.195438 18.7385L0.250899 18.0142L0.09375 17.4569L0.195438 16.7418V16.3982L0.846967 16.0825L0.925753 14.513L1.06442 14.4387L2.21998 14.0579L2.2662 13.2778V10.8522L9.06091 9.61876L12.5368 8.26286L15.9296 6.56334C16.2993 6.26615 19.2487 5.10218 20.4166 5.22601C21.1857 5.24087 24.009 6.24758 24.6623 6.56334L22.9091 8.58789L23.808 8.945L24.1023 10.4707L24.6623 10.6853L25.2793 10.8522L25.4217 11.2575L26.8614 10.4707L33.8509 9.61876L35.4848 11.4878L34.5468 12.9772L33.1853 14.2843L32.0052 15.6521L30.7611 14.7142L29.3847 16.3353L25.074 21.6499L24.1023 21.8612L24.2752 21.0919L1.59447 20.4321L0.846967 19.54Z" fill="white"/>
<path fill-rule="evenodd" clip-rule="evenodd" d="M19.0829 0.36926L19.0918 0.813195L18.8862 0.853978C18.591 0.912398 18.6262 0.986525 18.9321 0.950701L19.1836 0.921491L19.193 1.11163C19.2018 1.29378 19.1941 1.30673 19.0019 1.42522L18.8014 1.54923L18.9243 1.66607C19.0003 1.73826 19.0271 1.7898 18.9947 1.80082C18.9659 1.81074 18.5572 1.78787 18.087 1.75011C16.5057 1.62308 16.1289 1.61178 16.1289 1.69142C16.1289 1.77464 16.3383 1.82341 17.1235 1.92289C17.6496 1.98958 18.668 2.14445 18.908 2.19405C19.095 2.2329 19.047 2.30042 18.8323 2.30042C18.6879 2.30042 18.6374 2.31778 18.6374 2.3671C18.6374 2.40844 18.6785 2.43379 18.7456 2.43379C18.8052 2.43379 18.8538 2.45749 18.8538 2.4867C18.8538 2.51591 18.9179 2.47595 18.9965 2.39797C19.139 2.25605 19.3293 2.207 19.3299 2.31171C19.3301 2.34203 19.3776 2.89591 19.4356 3.54239C19.4936 4.18886 19.5373 4.72125 19.5325 4.72566C19.5279 4.72979 19.1154 4.76617 18.616 4.8064C18.1163 4.84663 17.5892 4.90753 17.4448 4.9417C16.9249 5.06488 15.9357 5.54271 14.1824 6.51793C13.6234 6.82905 13.1247 7.09662 13.0743 7.11288C12.9986 7.13713 12.9782 7.12032 12.9581 7.01615C12.9447 6.94699 12.895 6.84172 12.8483 6.7822L12.763 6.67418L12.5641 6.77366L12.365 6.87286L12.3762 7.12721L12.3875 7.38128L11.8524 7.57913L11.8277 7.34848C11.8143 7.22172 11.7735 6.75822 11.737 6.3187C11.7007 5.8789 11.6597 5.4267 11.646 5.31344L11.6205 5.10759L11.7877 5.14452C11.8798 5.16491 12.0376 5.20652 12.1385 5.23738C12.2786 5.2801 12.3341 5.2812 12.3725 5.24152C12.4342 5.17841 12.2579 5.09767 12.0588 5.09767C11.8577 5.09767 11.6452 4.98772 11.6178 4.86923C11.6047 4.81164 11.5805 4.6328 11.5644 4.47187L11.5352 4.17894L11.8873 4.24452C12.2222 4.3068 12.3677 4.2933 12.2394 4.21173C12.2069 4.19107 12.0614 4.15111 11.9163 4.12273C11.7708 4.09462 11.6208 4.0621 11.5827 4.0508C11.529 4.03482 11.5005 3.92046 11.4581 3.55368C11.3774 2.85403 11.3336 2.81627 11.3304 3.44373C11.3274 4.05383 11.3468 4.02573 10.9855 3.9403C10.8581 3.91027 10.7805 3.90999 10.7515 3.93975C10.6981 3.99459 10.8422 4.05631 11.1262 4.09985L11.3277 4.13099L11.3341 4.45891C11.3376 4.63913 11.3425 4.81191 11.3449 4.84222C11.3476 4.87612 11.3092 4.8921 11.2472 4.88301C11.1774 4.87309 11.1511 4.88714 11.164 4.92737C11.1745 4.95989 11.2255 4.99296 11.277 5.00095C11.3696 5.01473 11.3709 5.02685 11.3709 5.84859C11.3709 6.30685 11.383 6.91998 11.398 7.2107L11.4249 7.73924L10.9614 7.90513C10.6144 8.0294 10.478 8.05999 10.4182 8.0272C10.3744 8.00323 10.1952 7.98366 10.0199 7.98366C9.84252 7.98366 9.67988 7.96162 9.65304 7.93378C9.61735 7.89713 9.54167 7.91918 9.36508 8.01728L9.12542 8.15038L9.09992 7.96713C8.87315 6.33413 8.87207 6.32228 8.93917 6.21702C9.14555 5.8935 8.54573 5.64549 7.83185 5.7593C7.17674 5.86374 6.50661 6.1608 6.14618 6.50691C6.01065 6.6367 5.99885 6.66729 6.023 6.82271C6.04205 6.94478 5.96986 7.41049 5.77422 8.42374C5.62258 9.20965 5.49162 9.8586 5.48276 9.86577C5.4739 9.87293 4.78552 10.116 3.95302 10.4059C2.93615 10.7597 2.40718 10.9655 2.34169 11.0322C2.25608 11.1199 2.24454 11.1761 2.24588 11.5001C2.24696 11.7355 2.26977 11.9085 2.30922 11.9793C2.34384 12.0413 2.37175 12.2108 2.37256 12.3629L2.37417 12.6355L1.99388 12.7319L1.61332 12.8284L1.63104 13.1111L1.64848 13.3941L1.45981 13.444C1.11817 13.5344 0.990156 13.584 0.924672 13.6512C0.873681 13.7036 0.859726 13.8532 0.857847 14.369C0.856505 14.7276 0.841744 15.1007 0.825105 15.1982C0.795584 15.3727 0.789411 15.3776 0.49232 15.4754C0.0288356 15.6281 -0.0876394 15.8188 0.0605038 16.1825C0.111763 16.309 0.114447 16.3564 0.0731174 16.4077C0.000656051 16.4972 -0.00122253 17.2399 0.0709704 17.314C0.108006 17.352 0.124914 17.5325 0.124914 17.8897C0.124914 18.1757 0.136991 18.4422 0.151751 18.4818C0.188519 18.5802 0.395436 18.6836 0.555388 18.6836H0.68716V18.9784C0.68716 19.2705 0.689039 19.2752 0.870461 19.4336C1.27061 19.7839 1.56421 20.1399 1.82319 20.5905C1.92893 20.7743 1.9598 20.7947 2.27192 20.89C2.71796 21.0261 3.0129 21.0192 3.61379 20.8591C3.88888 20.7858 4.18463 20.7255 4.27104 20.7249C4.35773 20.7247 4.68407 20.788 4.99593 20.8663C5.55737 21.0068 5.56783 21.0077 5.99079 20.9517C6.22589 20.9203 6.51574 20.9019 6.63463 20.9104C6.84423 20.9253 6.83644 20.9291 6.37511 21.0352C5.79461 21.1692 5.37836 21.1711 4.89716 21.0424C4.43958 20.92 4.13364 20.9242 3.6307 21.0598C3.03947 21.2193 2.77915 21.2072 2.07627 20.987C1.55589 20.8241 1.45606 20.8065 1.16218 20.8239C0.904276 20.8393 0.766331 20.8757 0.532576 20.9898C0.190397 21.1568 0.210526 21.2039 0.581152 21.1047C0.965197 21.0019 1.17882 21.0206 1.79179 21.2097C2.57921 21.4527 2.78612 21.4668 3.49866 21.3259L4.08265 21.2105L4.76861 21.3089C5.41406 21.4015 5.4892 21.4039 6.04447 21.3474C6.83564 21.2673 7.13327 21.2805 7.58977 21.4163C8.92414 21.8134 9.39889 21.8151 10.6111 21.4279C11.3371 21.1962 11.5531 21.219 12.6079 21.6384C13.2675 21.9011 13.6258 21.9691 14.3429 21.9688C15.0681 21.9683 15.3313 21.9272 15.9397 21.7195C16.2237 21.6227 16.5318 21.5503 16.7172 21.5368C16.9926 21.5166 17.0849 21.534 17.6039 21.7029C18.3967 21.9611 18.8833 21.9851 19.8486 21.8142C20.6076 21.6798 21.5356 21.6153 21.5356 21.6966C21.5356 21.7244 21.482 21.747 21.4165 21.747C21.3513 21.747 20.8556 21.8255 20.3156 21.9214C18.7279 22.2033 18.4882 22.2025 17.5562 21.9129C16.9512 21.725 16.6413 21.7247 16.0855 21.911C15.3906 22.1438 15.2197 22.1689 14.3338 22.167C13.4047 22.1653 13.3368 22.1521 12.3451 21.785C11.4869 21.4673 11.3282 21.4607 10.441 21.7062C9.77999 21.8892 9.72175 21.8977 9.1434 21.8975C8.58464 21.8975 8.48588 21.884 7.86727 21.7252C7.03639 21.512 6.78384 21.5048 6.22374 21.6781C5.72806 21.8316 5.31986 21.8437 4.58021 21.7269C3.85238 21.6117 3.23565 21.6809 2.61812 21.9468C2.38624 22.0468 2.43643 22.0639 2.7201 21.9818C2.98043 21.9066 3.40983 21.8997 5.83433 21.9336C6.99076 21.9498 7.28812 21.968 7.79964 22.0543C8.66032 22.1998 9.4099 22.173 10.1383 21.9713C10.8548 21.7726 11.116 21.7897 12.029 22.0956C12.9168 22.3929 13.2949 22.4574 14.1502 22.4574C14.9489 22.4574 15.5315 22.3803 16.2019 22.1857C16.78 22.0179 17.0146 22.0154 17.6211 22.1703C18.3884 22.3662 19.1087 22.3411 20.519 22.07C21.3193 21.9159 21.9637 21.9077 22.5088 22.0446C23.2205 22.2235 23.4822 22.2226 24.502 22.038C24.849 21.9752 24.9518 21.9741 25.3833 22.0278C25.9652 22.1003 26.1718 22.0708 26.5076 21.8677C26.7341 21.7308 26.7749 21.6765 27.2322 20.9024C27.4987 20.4513 27.7177 20.0672 27.7187 20.049C27.7198 20.0305 21.8639 20.0156 14.7052 20.0156H1.68927L1.55589 19.8426C1.48262 19.7475 1.42251 19.6604 1.42251 19.6486C1.42251 19.637 1.83044 19.6015 2.32881 19.5695C2.82719 19.5378 3.22653 19.4979 3.21633 19.4808C3.18815 19.4339 2.47025 19.3457 1.65626 19.2893L0.925209 19.2385L0.912059 19.0327L0.899177 18.8269L1.97187 18.7971C4.58075 18.7249 8.75157 18.591 9.66244 18.5505C13.8837 18.3614 17.0122 18.0123 20.0432 17.3914C21.275 17.139 23.3088 16.6088 23.4049 16.5149C23.4218 16.4981 23.0616 16.5399 22.6046 16.608C20.1889 16.9665 17.5972 17.2622 14.9178 17.4851C11.8548 17.7397 10.7467 17.8117 6.05064 18.0616C4.2069 18.1597 2.19409 18.2688 1.57763 18.3047C0.96144 18.3402 0.442134 18.3598 0.424152 18.3482C0.360547 18.308 0.332368 18.0492 0.361621 17.7698C0.390337 17.4948 0.394631 17.4871 0.528282 17.4667C0.603964 17.4551 1.3954 17.3832 2.28775 17.3071C5.15695 17.0624 9.83071 16.5623 12.6902 16.1938C15.6668 15.8102 18.3326 15.3986 22.8764 14.6206C28.7643 13.6129 31.2127 13.2629 32.3418 13.2676C32.6743 13.269 32.6818 13.2525 31.6142 14.8268C30.5708 16.3655 28.6701 19.2689 27.7912 20.6668C27.5121 21.1107 27.2555 21.4976 27.2212 21.5271C27.1133 21.6191 27.1503 21.6448 27.431 21.6715C27.7297 21.7002 28.036 21.8085 28.694 22.1179C29.2761 22.3918 29.6269 22.4527 30.0855 22.3599C30.2742 22.3218 30.5538 22.237 30.7074 22.1714C31.3813 21.8829 31.5871 21.8244 32.0076 21.8021C32.371 21.7831 32.4907 21.7974 32.9593 21.9168C33.254 21.9917 33.5739 22.0653 33.67 22.0802C33.8994 22.1154 34.371 22.0358 34.6742 21.9107C35.0303 21.7638 35.0108 21.7029 34.6321 21.7793C34.2389 21.8586 33.8012 21.8305 33.0811 21.6798C32.0093 21.4555 31.6043 21.4789 30.5552 21.8261C29.7034 22.108 29.4634 22.108 28.8671 21.8255C28.6291 21.7128 28.3177 21.5866 28.175 21.5453C28.0322 21.5037 27.9095 21.4646 27.9023 21.4582C27.869 21.4282 29.7581 18.8696 30.5643 17.8527C32.5133 15.3947 35.6283 11.8581 35.9079 11.7859C35.9621 11.7721 36.0641 11.6988 36.135 11.623C36.2549 11.4944 36.2643 11.4588 36.2788 11.0807C36.2874 10.8584 36.2724 10.6018 36.2458 10.5106C36.1615 10.2215 35.7499 9.93493 35.1063 9.71751C34.843 9.62878 34.8143 9.60729 34.8143 9.50064C34.8127 8.91231 34.5564 3.48948 34.5285 3.45861C34.4864 3.41204 34.474 3.52613 34.4448 4.23929C34.4163 4.93068 34.4058 5.00371 34.3328 5.02327C34.2252 5.0522 34.2295 5.14204 34.3385 5.14204C34.4233 5.14204 34.4244 5.16463 34.4024 6.35177C34.3897 7.01726 34.3685 8.0013 34.3549 8.53837L34.3299 9.51525L33.5017 9.50009C32.586 9.48356 31.8818 9.52958 30.4892 9.69712C29.6188 9.80156 28.2525 9.99749 28.0351 10.0487C27.9573 10.0672 27.927 10.0427 27.8784 9.92281C27.7802 9.68169 27.632 9.60012 27.0167 9.44774C26.7021 9.37003 26.4402 9.30196 26.4343 9.29645C26.4284 9.29094 26.3468 8.90846 26.2529 8.44661C26.1136 7.761 26.0647 7.59208 25.9869 7.5276C25.9346 7.48406 25.7193 7.39533 25.5087 7.33057C25.1732 7.22751 25.1257 7.20051 25.1257 7.11233C25.1257 7.02387 25.1504 7.00982 25.3278 6.99797C25.6163 6.97868 25.6313 6.87369 25.3455 6.87369H25.1257L25.1254 6.57387C25.1254 6.14234 25.043 5.99904 24.6931 5.82048C23.8477 5.3895 22.4164 4.96733 21.4124 4.85297C21.1521 4.82321 21.1347 4.81357 21.0767 4.6711C20.9989 4.47986 20.9092 4.46966 20.9457 4.65594L20.972 4.79152L20.486 4.76093C20.2187 4.7444 19.9906 4.7218 19.9788 4.71106C19.9672 4.70031 19.8779 4.19851 19.7805 3.59585C19.6828 2.99346 19.5902 2.45942 19.5743 2.40954C19.5467 2.32219 19.5545 2.32053 19.7837 2.36352C19.9146 2.38832 20.0217 2.43186 20.0217 2.46052C20.0217 2.48918 20.0598 2.55972 20.1068 2.61759C20.1844 2.71294 20.1919 2.71487 20.1932 2.63688C20.194 2.59003 20.1605 2.51205 20.1189 2.46355C20.0456 2.37813 20.0464 2.3762 20.1514 2.4043C20.3966 2.46989 22.0066 2.83143 22.1816 2.86009C22.592 2.9276 22.2742 2.7912 21.1323 2.41037L19.945 2.01438L19.8755 1.78814C19.8371 1.66359 19.7611 1.47097 19.7064 1.35991C19.6023 1.14911 19.5998 1.05734 19.6978 1.05734C19.8054 1.05734 19.8918 0.919838 19.8918 0.748161C19.8918 0.604317 19.9082 0.57428 20 0.550582C20.2579 0.48417 20.0236 0.213842 19.7083 0.213842C19.4047 0.213842 19.3068 0.462676 19.5784 0.544795C19.8057 0.61341 19.7603 0.662461 19.4106 0.725841L19.2539 0.754224L19.2228 0.517238C19.2053 0.386896 19.1651 0.200339 19.1329 0.102789C19.0765 -0.0675099 19.0746 -0.0564873 19.0829 0.36926ZM19.7423 0.838271C19.7579 0.86445 19.7619 0.894762 19.7509 0.90606C19.7209 0.936923 19.5891 0.875748 19.5891 0.830555C19.5891 0.774891 19.7077 0.780953 19.7423 0.838271ZM19.5064 0.961173C19.4831 1.00581 19.434 1.06809 19.3969 1.09978C19.3409 1.14745 19.3296 1.14553 19.3296 1.08848C19.3296 1.05101 19.3178 0.988729 19.3033 0.949875C19.2829 0.895037 19.3068 0.879606 19.413 0.879606C19.5314 0.879606 19.5435 0.890353 19.5064 0.961173ZM19.6855 1.59552L19.8465 1.95486L19.6855 1.924C19.5966 1.90691 19.5 1.87219 19.4702 1.84711C19.4031 1.79035 19.3994 1.58064 19.4643 1.51396C19.5188 1.45802 19.4748 1.35303 19.413 1.39216C19.391 1.40621 19.3728 1.4007 19.3728 1.37976C19.3728 1.33704 19.4635 1.23453 19.5005 1.23564C19.5134 1.23591 19.5966 1.39767 19.6855 1.59552ZM19.2351 1.69004C19.2193 1.85731 19.1573 1.86943 19.0829 1.71953C19.0424 1.63823 19.0424 1.60737 19.0829 1.58092C19.1965 1.50707 19.2488 1.54454 19.2351 1.69004ZM16.5181 2.11827C16.5181 2.16952 16.627 2.21168 16.7596 2.21168C16.9096 2.21168 16.8887 2.13894 16.729 2.10614C16.5492 2.06949 16.5181 2.07115 16.5181 2.11827ZM17.167 2.25109C17.167 2.30042 17.4555 2.35911 17.5143 2.32164C17.5382 2.30675 17.5465 2.27589 17.5328 2.25302C17.5009 2.20011 17.167 2.19846 17.167 2.25109ZM17.9888 2.32274C17.9888 2.36683 18.0317 2.38942 18.116 2.38942C18.2735 2.38942 18.3248 2.31998 18.1938 2.28388C18.0398 2.24172 17.9888 2.25137 17.9888 2.32274ZM18.7024 2.61869C18.5846 2.68566 18.4214 2.84052 18.4214 2.88544C18.4214 2.90556 18.4584 2.92209 18.5041 2.92209C18.5843 2.92209 18.8105 2.69034 18.8105 2.60795C18.8105 2.55779 18.8095 2.55779 18.7024 2.61869ZM20.2815 3.04417C20.2823 3.14943 20.4753 3.56884 20.5429 3.61183C20.6189 3.65978 20.5663 3.40378 20.4495 3.15632C20.3569 2.95984 20.281 2.90914 20.2815 3.04417ZM17.9976 3.18939C17.9214 3.23706 17.8589 3.30678 17.8589 3.34426C17.8589 3.40571 17.8728 3.40543 17.9909 3.3426C18.1136 3.27757 18.1965 3.16514 18.1544 3.1216C18.1442 3.1114 18.0739 3.14199 17.9976 3.18939ZM17.2419 3.65619C17.083 3.76725 17.0334 3.85433 17.1294 3.85433C17.2177 3.85433 17.4697 3.67108 17.4697 3.60659C17.4697 3.51814 17.4265 3.52751 17.2419 3.65619ZM20.6505 3.95436C20.686 4.123 20.781 4.32527 20.8432 4.36495C20.9149 4.41041 20.891 4.20126 20.8014 3.99872C20.7007 3.77083 20.6062 3.743 20.6505 3.95436ZM16.291 4.19272C16.0119 4.33739 15.9231 4.43163 16.0653 4.43163C16.155 4.43163 16.532 4.23268 16.5986 4.15056C16.6998 4.02545 16.5825 4.04143 16.291 4.19272ZM15.3337 4.61103C15.0418 4.70389 14.9532 4.76947 15.0616 4.81219C15.1424 4.84388 15.5487 4.70692 15.6145 4.62563C15.6896 4.53249 15.5951 4.52753 15.3337 4.61103ZM14.3155 4.93371C14.1497 4.99296 14.0858 5.09767 14.2157 5.09767C14.3528 5.09767 14.5769 5.00233 14.5603 4.95107C14.5369 4.87943 14.479 4.87529 14.3155 4.93371ZM20.8929 5.09877C22.2374 5.23546 23.5297 5.58019 24.4405 6.04562L24.8012 6.22969L24.8136 6.68851C24.8248 7.10847 24.8195 7.14594 24.7486 7.13189C24.6837 7.11921 24.6695 7.06162 24.6587 6.77145C24.6469 6.44822 24.6391 6.42314 24.5371 6.38346C24.32 6.29858 24.3039 6.31732 24.3039 6.65158C24.3039 6.84889 24.2865 6.96242 24.2559 6.96242C24.2237 6.96242 24.2132 6.84696 24.2237 6.60832L24.2395 6.25422L23.9413 6.14068C23.7774 6.07841 23.6367 6.03377 23.6292 6.04176C23.6214 6.04947 23.6019 6.22005 23.5858 6.42038C23.545 6.91971 23.4663 6.89408 23.4897 6.38952L23.5082 5.99408L23.2068 5.90094C23.0409 5.84996 22.8979 5.81552 22.889 5.82461C22.8802 5.83371 22.8611 6.01337 22.8466 6.22418C22.8101 6.75382 22.7288 6.72406 22.7562 6.19084L22.7774 5.77446L22.4559 5.70199C22.279 5.66203 22.1164 5.64081 22.0944 5.65459C22.0727 5.66864 22.0544 5.75379 22.0541 5.8439C22.0536 6.12746 22.001 6.47384 21.9586 6.47384C21.9339 6.47384 21.9299 6.30189 21.9481 6.03597L21.9785 5.59782L21.6231 5.54436C21.4275 5.51515 21.2597 5.49917 21.2503 5.50882C21.2407 5.51874 21.2203 5.6849 21.2047 5.87835C21.1612 6.42314 21.0982 6.47908 21.1196 5.95385C21.1409 5.42559 21.1897 5.47244 20.5732 5.42807L20.1514 5.39776V5.82489C20.1514 6.08006 20.1339 6.25201 20.1081 6.25201C20.0824 6.25201 20.0649 6.08171 20.0649 5.83012V5.40851H18.6374L18.6337 5.61932C18.6315 5.73533 18.6157 5.93015 18.598 6.05223C18.551 6.37822 18.4944 6.19718 18.5148 5.78548L18.5312 5.45288H18.4088C18.1469 5.45288 17.6775 5.55704 17.6539 5.62042C17.6404 5.65597 17.693 5.84363 17.7703 6.0379C17.8476 6.23217 17.9042 6.39586 17.8959 6.40192C17.8873 6.40798 17.0339 6.6987 15.999 7.04757C13.8802 7.76238 10.6103 8.94924 10.6495 8.9892C10.6581 8.99829 10.9069 8.92747 11.2018 8.83185C12.1954 8.51054 14.5415 7.77093 15.6531 7.4284C16.2596 7.24157 17.0967 6.97785 17.513 6.84255L18.2698 6.59619L19.5027 6.62044C21.1078 6.65186 22.176 6.77999 23.655 7.11811C24.4274 7.29475 25.6208 7.64857 25.7636 7.74337C25.8801 7.8208 25.8991 7.96382 25.787 7.91945C25.6152 7.85167 24.1512 7.4915 23.6333 7.38954C22.1438 7.09634 21.0603 6.99163 19.4809 6.98887C18.5846 6.98722 18.1525 7.00348 17.967 7.04591C17.5803 7.13437 15.7331 7.67696 14.5284 8.05586C12.3207 8.75056 3.83762 11.5125 3.08778 11.7809C2.85 11.8661 2.64254 11.9355 2.62698 11.9355C2.57921 11.9347 2.50379 11.6641 2.50379 11.493C2.50379 11.4034 2.52822 11.299 2.558 11.2604C2.58779 11.2218 3.83816 10.7602 5.33703 10.2345C6.83564 9.70869 8.47085 9.12891 8.9703 8.94621C10.4759 8.3948 12.2724 7.73262 12.7614 7.54882C13.0147 7.45347 13.6376 7.14512 14.1454 6.86321C15.8276 5.92988 16.9429 5.38784 17.4587 5.25254C18.0578 5.09547 20.0035 5.00839 20.8929 5.09877ZM33.8927 5.10181C33.5248 5.19081 33.4209 5.35119 33.7628 5.30324C33.9703 5.27403 34.1656 5.17373 34.1656 5.09657C34.1656 5.04642 34.1192 5.04724 33.8927 5.10181ZM13.534 5.14094C13.4846 5.1729 13.4814 5.19495 13.5203 5.2349C13.5813 5.29746 13.7208 5.25254 13.6967 5.17814C13.673 5.10539 13.6108 5.09106 13.534 5.14094ZM12.6481 5.22884C12.6325 5.25474 12.6481 5.28699 12.6827 5.30076C12.7799 5.33907 13.0794 5.30297 13.0794 5.25309C13.0794 5.19247 12.6835 5.17015 12.6481 5.22884ZM11.9552 5.31923C11.9195 5.37847 12.0934 5.58597 12.1787 5.58597C12.2681 5.58597 12.2469 5.52452 12.1111 5.39087C12.026 5.30738 11.9761 5.28451 11.9552 5.31923ZM32.8154 5.38646C32.5605 5.44351 32.3125 5.50303 32.2639 5.51901C32.1362 5.56062 32.156 5.63089 32.2948 5.62786C32.4966 5.62373 33.3154 5.3895 33.3337 5.3308C33.3549 5.26301 33.3801 5.26026 32.8154 5.38646ZM31.5705 5.65459C31.1295 5.75104 30.9215 5.81635 30.9215 5.85823C30.9215 5.91334 31.038 5.90645 31.4253 5.82819C31.8284 5.7469 31.9744 5.69041 31.9379 5.63034C31.9065 5.57798 31.9258 5.57688 31.5705 5.65459ZM12.3658 5.82875C12.3658 5.89571 12.4922 5.98554 12.5867 5.98554C12.6167 5.98554 12.5955 5.93649 12.5389 5.87449C12.4238 5.74883 12.3658 5.7334 12.3658 5.82875ZM29.9097 5.98637C29.5356 6.06711 29.4031 6.12884 29.4656 6.19304C29.5007 6.22914 30.2506 6.0897 30.3676 6.0255C30.4674 5.97066 30.4688 5.89598 30.37 5.89984C30.3284 5.90149 30.1212 5.94035 29.9097 5.98637ZM12.8416 6.21895C12.8416 6.30409 12.9809 6.42948 13.0756 6.42948C13.1859 6.42948 13.1368 6.33193 12.9788 6.23713C12.8676 6.17072 12.8416 6.16714 12.8416 6.21895ZM28.351 6.32256C27.7254 6.46778 27.5655 6.52785 27.6855 6.57194C27.8473 6.63147 29.059 6.32697 29.0944 6.21784C29.1178 6.14592 29.1027 6.14812 28.351 6.32256ZM7.36998 6.46916C7.05946 6.56202 6.75191 6.72461 6.47253 6.94313C6.24629 7.12032 6.19986 7.08973 6.38584 6.88609C6.63355 6.61576 7.11448 6.38814 7.43492 6.39035L7.62949 6.39145L7.36998 6.46916ZM13.4412 6.69732C13.5614 6.80011 13.6202 6.80865 13.6202 6.72295C13.6202 6.65654 13.5281 6.60611 13.4111 6.60859C13.3534 6.6097 13.3596 6.62761 13.4412 6.69732ZM26.7043 6.63615C26.6568 6.64662 26.4767 6.68548 26.3044 6.72295C26.0918 6.76897 25.9907 6.81141 25.9907 6.8544C25.9907 6.93982 26.1002 6.93348 26.6361 6.81637C27.0958 6.71634 27.2746 6.60253 26.9565 6.61245C26.8656 6.61521 26.752 6.62595 26.7043 6.63615ZM7.6727 6.82904C7.68827 6.85495 7.64479 6.87369 7.56804 6.87369C7.34072 6.87369 6.88153 7.05666 6.55733 7.27601C6.25085 7.48379 6.08687 7.4926 6.33646 7.28786C6.73312 6.96242 7.57823 6.67252 7.6727 6.82904ZM12.7549 6.91309C12.7549 6.96683 12.7141 7.00761 12.6419 7.02635C12.4922 7.06493 12.4637 7.02745 12.5601 6.91833C12.6591 6.8059 12.7549 6.80342 12.7549 6.91309ZM12.8338 7.12555C12.8263 7.16661 12.7568 7.22641 12.6792 7.25893C12.5515 7.31266 12.5389 7.31046 12.5389 7.23743C12.5389 7.19114 12.5891 7.13658 12.6578 7.10874C12.8277 7.03985 12.8497 7.04206 12.8338 7.12555ZM7.62949 7.31762C7.61473 7.34187 7.54764 7.36199 7.48001 7.36199C7.2688 7.36199 6.82088 7.53063 6.48487 7.73675C6.14377 7.94618 6.06004 7.96272 6.21865 7.78939C6.34424 7.65188 6.69877 7.45568 6.99989 7.35675C7.26343 7.27022 7.67324 7.2446 7.62949 7.31762ZM20.8218 7.4521C22.3432 7.5659 24.1483 7.87977 25.3605 8.24076L25.9195 8.40748L25.9974 8.7839C26.0403 8.99085 26.0859 9.20496 26.0988 9.26008C26.1206 9.35294 26.1077 9.35983 25.9179 9.35983C25.5639 9.35983 25.7615 9.44388 26.6219 9.65937C27.2732 9.82278 27.4587 9.88588 27.5448 9.97434C27.6481 10.0804 27.6492 10.0862 27.5676 10.1187C27.3835 10.1929 26.9453 10.1513 26.1512 9.98481C23.768 9.48521 21.942 9.28267 19.6323 9.26118L18.3132 9.24878L17.7725 9.41384C17.4751 9.5045 16.8133 9.6974 16.3018 9.84262C15.7903 9.98784 14.3891 10.3866 13.1875 10.7291C11.9863 11.0714 9.89378 11.6641 8.53768 12.0463C5.53885 12.8915 1.54489 14.0414 1.29664 14.1312L1.11495 14.1971L1.1281 14.0136L1.14152 13.8298L1.60286 13.7066C2.42301 13.4875 2.5784 13.3434 2.62134 12.762L2.6455 12.4338L2.82343 12.3814C3.16802 12.2797 7.41265 10.9162 9.12166 10.3579C9.84735 10.1209 10.9957 9.74865 11.6736 9.53068C12.3518 9.31271 13.4124 8.96688 14.0311 8.76213C17.1434 7.73262 17.9869 7.48379 18.5293 7.43639C18.9335 7.40112 20.2619 7.41021 20.8218 7.4521ZM19.1133 7.87261V8.20549H19.6323V7.53945H19.1133V7.87261ZM19.719 7.87013V8.20549H20.1986L20.1857 7.88363L20.1731 7.56177L19.719 7.53477V7.87013ZM20.2812 7.87343C20.2812 8.18124 20.2858 8.19612 20.3894 8.21651C20.4967 8.23746 20.4976 8.23498 20.4976 7.91587C20.4976 7.60807 20.4927 7.59346 20.3894 7.57307C20.282 7.55213 20.2812 7.55433 20.2812 7.87343ZM18.8105 7.89465C18.8105 8.20411 18.8111 8.20549 18.9294 8.20549L19.0486 8.20577L19.0341 7.89493C19.0204 7.5998 19.0145 7.58382 18.9152 7.58382C18.8146 7.58382 18.8105 7.59567 18.8105 7.89465ZM20.602 7.64444C20.5893 7.67778 20.5853 7.82246 20.5926 7.9663L20.6057 8.22781L20.8328 8.24104L21.0598 8.25454V7.63948L20.9245 7.61165C20.7171 7.56894 20.6266 7.5783 20.602 7.64444ZM21.1462 7.93406C21.1462 8.27466 21.1639 8.29257 21.5032 8.29367L21.6653 8.29422V7.68467L21.4645 7.65657C21.132 7.60972 21.1462 7.59732 21.1462 7.93406ZM17.6428 7.73565L17.4912 7.79159V8.58301L17.5994 8.56731C17.8417 8.53231 17.8589 8.49924 17.8589 8.07074C17.8589 7.85194 17.8444 7.6742 17.8264 7.67613C17.8087 7.67806 17.726 7.70479 17.6428 7.73565ZM21.7605 8.01673L21.7734 8.31654L22.0222 8.32977L22.271 8.34327V8.05696C22.271 7.73372 22.2546 7.71719 21.9409 7.71719H21.7479L21.7605 8.01673ZM22.3574 8.07239V8.38323H22.6601V8.09967C22.6601 7.8434 22.6507 7.81364 22.5627 7.78939C22.366 7.73538 22.3574 7.74723 22.3574 8.07239ZM8.56264 7.89576C8.89703 7.99413 9.02183 8.22561 8.7972 8.3306C8.73788 8.35843 8.68931 8.39839 8.68931 8.41905C8.68931 8.49235 8.74459 8.51274 8.82457 8.46893C8.89381 8.4309 8.90535 8.44082 8.90535 8.53782C8.90535 8.61333 8.87288 8.66568 8.8082 8.69407C8.61738 8.77756 5.81528 9.75471 5.80293 9.74204C5.78844 9.72688 5.8974 9.11596 5.9924 8.68139L6.05816 8.38047L6.30345 8.25344C6.62094 8.08893 7.20814 7.90209 7.56455 7.85194C7.86701 7.8095 8.34069 7.83017 8.56264 7.89576ZM22.7734 7.83761C22.7586 7.85277 22.7465 7.98228 22.7465 8.12558C22.7465 8.4039 22.7449 8.40197 23.0171 8.44826L23.1792 8.47582V8.184C23.1792 7.9889 23.1612 7.88639 23.1252 7.87509C22.9921 7.8332 22.7978 7.81281 22.7734 7.83761ZM17.156 7.89741C17.0935 7.93571 17.0803 8.00874 17.0803 8.32426V8.70509L17.2156 8.67726C17.2899 8.6621 17.3686 8.64942 17.3903 8.64942C17.412 8.64942 17.4241 8.47527 17.4174 8.26088C17.4061 7.91064 17.3965 7.87151 17.3184 7.86186C17.2706 7.85607 17.1976 7.87206 17.156 7.89741ZM23.2656 8.17628V8.46783L23.4279 8.49594C23.517 8.51137 23.6241 8.53369 23.6657 8.54526C23.7323 8.564 23.7414 8.53148 23.7414 8.27824C23.7414 7.96354 23.7497 7.97291 23.4279 7.91422L23.2656 7.88473V8.17628ZM23.8281 8.26749C23.8281 8.49098 23.8426 8.56069 23.8893 8.56069C23.9231 8.56069 23.9813 8.57282 24.0192 8.5877C24.0771 8.61057 24.0876 8.57061 24.0876 8.32123C24.0876 8.09774 24.0729 8.02803 24.0262 8.02803C23.9923 8.02803 23.9341 8.0159 23.8965 8.00102C23.8383 7.97815 23.8281 8.01811 23.8281 8.26749ZM9.68901 8.22037C9.71933 8.33693 9.70833 8.35237 9.5406 8.42787C9.44103 8.47306 9.30469 8.52377 9.2376 8.54085C9.12032 8.57061 9.11602 8.56593 9.12944 8.42512C9.14125 8.30194 9.17426 8.26226 9.33797 8.176C9.57763 8.05007 9.64687 8.05861 9.68901 8.22037ZM24.1826 8.3463C24.1944 8.6012 24.2049 8.62876 24.2951 8.64171C24.3911 8.65576 24.3941 8.64612 24.3818 8.37551C24.3699 8.12089 24.3595 8.09306 24.2693 8.08011C24.1732 8.06605 24.1703 8.0757 24.1826 8.3463ZM10.2657 8.15506C10.2161 8.20136 9.95362 8.29422 9.87231 8.29422C9.77381 8.29422 9.80736 8.16856 9.91122 8.14817C10.094 8.1118 10.3076 8.11621 10.2657 8.15506ZM24.499 8.37166C24.4827 8.50558 24.4856 8.63124 24.5055 8.6508C24.5253 8.67064 24.6343 8.7004 24.747 8.71749L24.9526 8.74835V8.50172C24.9526 8.22754 24.9512 8.22561 24.7043 8.16856L24.5286 8.12806L24.499 8.37166ZM25.0312 8.28072C25.0224 8.30056 25.0157 8.41409 25.0162 8.53314C25.0173 8.71832 25.032 8.75552 25.1168 8.78776C25.2145 8.82524 25.2161 8.8211 25.2033 8.54939C25.1933 8.33418 25.1745 8.26997 25.1187 8.25895C25.0795 8.25123 25.0401 8.26115 25.0312 8.28072ZM15.3611 8.57172L15.2205 8.61801V9.48356L15.3936 9.43864L15.5664 9.39345V8.95475C15.5664 8.71363 15.5519 8.51826 15.5342 8.52074C15.5162 8.52322 15.4384 8.54609 15.3611 8.57172ZM14.9717 8.6993L14.8313 8.74091V9.61803L15.1341 9.52269V9.08592C15.1341 8.8459 15.1292 8.65135 15.1231 8.65356C15.1172 8.65576 15.0493 8.67615 14.9717 8.6993ZM18.1834 8.76737C17.0991 9.08647 15.5052 9.63209 15.4237 9.71228C15.4046 9.73102 15.7551 9.64917 16.2022 9.5304C16.6496 9.41164 17.3562 9.22508 17.7725 9.1154L18.5293 8.91645L19.6973 8.89798C20.3395 8.88779 20.8749 8.87484 20.8867 8.86905C21.0061 8.81063 18.3726 8.71143 18.1834 8.76737ZM13.8255 9.08151L13.6634 9.14985V9.56871C13.6634 9.96635 13.6677 9.98619 13.7498 9.96221C13.7976 9.94844 13.8754 9.92584 13.9229 9.91179C14.0021 9.88891 14.0093 9.84868 14.0093 9.44581C14.0093 9.20303 14.0045 9.00656 13.9986 9.00904C13.9927 9.01152 13.9148 9.04403 13.8255 9.08151ZM13.3714 9.21351C13.2783 9.23197 13.274 9.25181 13.274 9.6737C13.274 9.91619 13.2844 10.1146 13.297 10.1146C13.3097 10.1146 13.3896 10.0848 13.4747 10.0482C13.5864 10.0005 13.6223 9.96221 13.6033 9.91151C13.5888 9.87266 13.577 9.69271 13.577 9.51167C13.577 9.16831 13.5796 9.17245 13.3714 9.21351ZM12.355 9.58552C12.292 9.62299 12.2794 9.69629 12.2794 10.0234V10.4161L12.4522 10.3709L12.6253 10.326V9.93163C12.6253 9.55217 12.6218 9.53757 12.5279 9.53867C12.4745 9.5395 12.3966 9.56044 12.355 9.58552ZM11.9656 9.71862C11.9028 9.75609 11.89 9.82884 11.89 10.1446V10.5255L12.0292 10.4968C12.1057 10.4811 12.1803 10.4535 12.1948 10.4356C12.2093 10.4177 12.2128 10.2383 12.2023 10.0369C12.1825 9.65055 12.1508 9.60784 11.9656 9.71862ZM34.4026 9.91592C34.8916 10.0035 35.3948 10.1755 35.686 10.3546L35.9173 10.4971L35.9444 10.9165C35.9592 11.1469 35.9654 11.3425 35.9584 11.3508C35.9514 11.3591 35.8419 11.2863 35.7152 11.189C35.1374 10.7459 34.6509 10.6208 33.6683 10.6619C31.4304 10.7558 24.4107 11.8862 16.3885 13.4445C13.5257 14.0006 9.71074 14.6887 7.16655 15.1076C4.67549 15.5179 0.974322 16.1023 0.636706 16.1384C0.366988 16.1674 0.254808 16.1186 0.254808 15.9726C0.254808 15.8673 0.298016 15.8428 0.635364 15.7579C1.05027 15.6529 1.09321 15.5766 1.08516 14.956C1.07899 14.4845 1.08221 14.466 1.17507 14.4437C1.22794 14.4308 1.62164 14.3396 2.0497 14.2409C2.47803 14.1423 3.12991 13.9918 3.49866 13.9064C4.43261 13.6898 7.38232 12.9777 8.88388 12.606C9.57361 12.4351 10.6637 12.1654 11.306 12.0064C13.1782 11.5429 14.8641 11.1171 16.6262 10.6627L18.2698 10.2389L20.0432 10.2634C21.0187 10.2769 22.0697 10.3086 22.3791 10.334C23.2055 10.4012 24.2599 10.5139 24.4335 10.5533C24.5761 10.5858 24.5656 10.5913 24.2604 10.6442C23.0694 10.8506 20.2566 11.4266 19.7729 11.5627C19.6769 11.5897 19.6755 11.5845 19.6755 11.1631V10.7363H19.1082L19.138 11.1518C19.1562 11.4078 19.1508 11.5982 19.124 11.6476C19.0915 11.7068 19.0725 11.6021 19.0491 11.237L19.018 10.7467L18.8017 10.8052C18.6828 10.8374 18.5795 10.8702 18.5725 10.8776C18.5655 10.8854 18.5529 11.1485 18.5446 11.4621L18.5293 12.0328L18.7673 12.0119C18.898 12.0003 19.8352 11.8292 20.8497 11.6316C24.0871 11.0008 26.0975 10.6599 28.7157 10.2976C31.7838 9.87321 33.5148 9.75692 34.4026 9.91592ZM11.1221 9.99721L10.9818 10.0388V10.8267L11.1007 10.798C11.1659 10.782 11.2348 10.755 11.2536 10.7377C11.2727 10.7203 11.2824 10.537 11.2754 10.3309L11.2628 9.9556L11.1221 9.99721ZM10.7655 10.1124C10.6616 10.1394 10.6568 10.1565 10.6447 10.5271C10.6315 10.9328 10.638 10.9446 10.8304 10.8694C10.9421 10.8258 10.9439 10.8176 10.9324 10.4668C10.9259 10.2697 10.9098 10.103 10.897 10.0964C10.8841 10.0898 10.8248 10.097 10.7655 10.1124ZM9.86774 10.4268C9.77757 10.464 9.77059 10.4946 9.77059 10.8426V11.2185L9.91068 11.1772C9.98798 11.1543 10.0561 11.1358 10.0623 11.1358C10.0682 11.1358 10.0733 10.9661 10.0733 10.7583C10.0733 10.3607 10.0642 10.3458 9.86774 10.4268ZM9.50007 10.5448C9.43566 10.5621 9.42439 10.6205 9.42439 10.9441C9.42439 11.2714 9.43378 11.3194 9.49282 11.2959C9.53067 11.2811 9.5889 11.2689 9.62272 11.2689C9.67076 11.2689 9.68391 11.1879 9.68391 10.8917C9.68391 10.5031 9.68042 10.4965 9.50007 10.5448ZM4.94762 10.801C3.89881 11.0504 2.4316 11.5911 2.62322 11.6575C2.71125 11.6878 5.48759 10.7963 5.57105 10.7106C5.61373 10.6668 5.35152 10.7049 4.94762 10.801ZM8.50547 10.9C8.44213 10.917 8.42979 10.973 8.42979 11.2428C8.42979 11.42 8.44106 11.5767 8.45502 11.5911C8.46897 11.6051 8.53714 11.5966 8.60638 11.5718C8.73037 11.5274 8.73252 11.5211 8.73252 11.1981C8.73252 10.8501 8.72554 10.841 8.50547 10.9ZM8.22421 11.0063C8.13511 11.041 8.12679 11.0725 8.12679 11.3786C8.12679 11.5624 8.14155 11.7129 8.15927 11.7123C8.17725 11.712 8.23549 11.6996 8.28916 11.685C8.3788 11.6602 8.38631 11.6327 8.38631 11.3331C8.38631 11.1543 8.37182 10.9992 8.35411 10.9881C8.33613 10.9774 8.27789 10.9857 8.22421 11.0063ZM34.6485 11.2001C34.9595 11.2678 35.1444 11.3505 35.3674 11.5219L35.5094 11.631L34.7188 12.4641L33.9279 13.2974L33.6249 13.2106C33.4585 13.1629 33.3168 13.1188 33.3101 13.1127C33.3036 13.1067 33.4563 12.7887 33.6496 12.4062C33.9646 11.7826 34.0298 11.5798 33.9153 11.5798C33.8841 11.5798 33.4206 12.1968 32.9674 12.8413L32.8452 13.0152L32.0455 13.0055C30.6636 12.989 28.504 13.1979 25.4284 13.6457C23.6714 13.9014 23.3437 13.9557 19.6973 14.5953C14.0592 15.5837 9.50275 16.1949 2.63369 16.8844C1.52744 16.9957 0.539554 17.0985 0.438645 17.1131L0.254808 17.1398V16.9147C0.254808 16.6554 0.228507 16.6675 0.903471 16.6188C4.21254 16.3798 8.50869 15.8042 12.1927 15.1062C13.7935 14.8028 16.5914 14.2252 19.4595 13.6063C25.4464 12.3144 30.0233 11.4797 32.5004 11.2282C32.762 11.2014 33.0344 11.1728 33.1058 11.1645C33.4668 11.1218 34.3871 11.1433 34.6485 11.2001ZM7.53207 11.226C7.44324 11.2626 7.43492 11.2954 7.43492 11.6007C7.43492 11.7845 7.44324 11.935 7.45371 11.935C7.46391 11.935 7.52241 11.9154 7.58333 11.8917C7.68907 11.8504 7.69444 11.8322 7.69444 11.5142C7.69444 11.3307 7.67968 11.1816 7.66197 11.183C7.64399 11.1846 7.58575 11.2039 7.53207 11.226ZM7.18614 11.3428C7.12226 11.3692 7.10858 12.0237 7.17165 12.0237C7.32194 12.0237 7.34824 11.9667 7.34824 11.6418C7.34824 11.313 7.33187 11.2824 7.18614 11.3428ZM17.1681 11.3629C17.1093 11.3869 17.0511 11.4235 17.0385 11.4442C17.0259 11.4649 17.0216 11.7027 17.0291 11.9725C17.0387 12.3255 17.057 12.4586 17.0938 12.447C17.1222 12.4382 17.199 12.4189 17.2642 12.404L17.3833 12.3773V11.8454C17.3833 11.2794 17.3815 11.2756 17.1681 11.3629ZM16.7019 11.4924C16.6088 11.5307 16.6045 11.555 16.6045 12.0455V12.5583L16.7237 12.5316C16.7889 12.5167 16.867 12.4971 16.8965 12.4878C16.9357 12.4754 16.9507 12.3293 16.9507 11.9587C16.9507 11.4034 16.9448 11.3921 16.7019 11.4924ZM6.51574 11.566C6.45213 11.5831 6.44005 11.6393 6.44005 11.916C6.44005 12.0973 6.44837 12.2458 6.45884 12.2458C6.46904 12.2458 6.52754 12.2263 6.58847 12.2026C6.69313 12.1618 6.69957 12.1411 6.69957 11.8474C6.69957 11.5277 6.6934 11.5183 6.51574 11.566ZM6.16604 11.6983C6.15021 11.7145 6.13733 11.8666 6.13733 12.0364C6.13733 12.3348 6.14055 12.3439 6.23448 12.3183C6.28815 12.3034 6.34639 12.291 6.36437 12.2907C6.38209 12.2905 6.39685 12.1505 6.39685 11.9793C6.39685 11.6834 6.39202 11.6685 6.29594 11.6685C6.24038 11.6685 6.18188 11.682 6.16604 11.6983ZM15.3936 11.841C15.2873 11.8716 15.2852 11.8812 15.2731 12.3751L15.2607 12.8777L15.4245 12.8468C15.5146 12.83 15.6035 12.8008 15.6222 12.7823C15.641 12.7639 15.6507 12.5409 15.6437 12.2869C15.6306 11.7906 15.6217 11.7749 15.3936 11.841ZM5.58582 11.8942C5.49752 11.9286 5.4884 11.9614 5.4884 12.2444C5.4884 12.5646 5.49376 12.5743 5.63708 12.5167C5.70873 12.4878 5.72 12.4406 5.71678 12.1835C5.71464 12.019 5.70632 11.8779 5.698 11.8705C5.68968 11.8628 5.63922 11.8735 5.58582 11.8942ZM14.9934 11.9488L14.8313 11.9882V12.9601L14.9934 12.93C15.0825 12.9135 15.1612 12.8953 15.1679 12.8895C15.1746 12.8837 15.1746 12.6608 15.1679 12.3943L15.1555 11.9094L14.9934 11.9488ZM5.23961 12.0088C5.17091 12.0372 5.16339 12.6454 5.23183 12.6454C5.25706 12.6454 5.31556 12.6247 5.36145 12.5994C5.43096 12.5613 5.44519 12.5048 5.44519 12.2665C5.44519 11.9711 5.41674 11.9355 5.23961 12.0088ZM4.37464 12.294C4.29037 12.3266 4.27749 12.3635 4.27802 12.5663C4.27883 12.8548 4.31023 12.9127 4.43958 12.8631C4.52546 12.8303 4.53674 12.795 4.53674 12.5605C4.53674 12.269 4.51822 12.2384 4.37464 12.294ZM13.577 12.3053L13.4256 12.3569L13.413 12.7923L13.4006 13.2279L13.7715 13.2004L13.7839 12.7603C13.7909 12.5184 13.7812 12.3053 13.7624 12.2872C13.7436 12.269 13.6602 12.2772 13.577 12.3053ZM4.04668 12.4087C4.01528 12.4406 4.00589 13.0006 4.03648 13.0006C4.04695 13.0006 4.10036 12.983 4.15564 12.9615C4.2477 12.9256 4.25441 12.9008 4.24099 12.6509C4.22891 12.4277 4.21281 12.3789 4.15081 12.3789C4.10948 12.3789 4.06252 12.3924 4.04668 12.4087ZM13.0904 12.4095C13.0246 12.4271 13.0144 12.4883 13.0144 12.8705C13.0144 13.3467 13.0171 13.3511 13.2632 13.2833C13.3558 13.258 13.3607 13.2354 13.3607 12.8179C13.3607 12.342 13.3577 12.3379 13.0904 12.4095ZM11.9007 12.6911C11.8094 12.7289 11.8035 12.7573 11.8035 13.1546C11.8035 13.6115 11.807 13.6173 12.0521 13.5498C12.1449 13.5242 12.1495 13.5016 12.1495 13.0841C12.1495 12.6093 12.139 12.5928 11.9007 12.6911ZM11.544 12.7738C11.4391 12.8036 11.4353 12.8182 11.4235 13.2395L11.4109 13.6743L11.5531 13.6435C11.6312 13.6267 11.7053 13.5999 11.7174 13.5842C11.7501 13.5418 11.7158 12.7333 11.6814 12.7385C11.6653 12.741 11.6033 12.757 11.544 12.7738ZM2.37417 12.8176C2.37417 12.8854 2.26306 12.9546 2.04514 13.0226C1.77623 13.1061 1.76871 13.1059 1.76871 13.0069C1.76871 12.9458 1.82695 12.9072 1.99576 12.8567C2.26628 12.776 2.37417 12.7647 2.37417 12.8176ZM10.5384 13.0312C10.4732 13.0485 10.4625 13.1081 10.4625 13.4533V13.8551L10.6018 13.8267C10.6785 13.811 10.7518 13.7835 10.7649 13.7656C10.7781 13.7476 10.7821 13.5683 10.7738 13.3668C10.7579 12.981 10.7528 12.9736 10.5384 13.0312ZM2.24293 13.1502C2.17584 13.2144 1.92571 13.3114 1.82695 13.3114C1.79501 13.3114 1.76871 13.2841 1.76871 13.2511C1.76871 13.1949 2.02233 13.1072 2.22119 13.0948C2.295 13.0901 2.29795 13.0973 2.24293 13.1502ZM10.1273 13.1188C10.0902 13.1342 10.0733 13.256 10.0733 13.5074C10.0733 13.7088 10.083 13.8835 10.0948 13.8956C10.1063 13.9077 10.1745 13.9089 10.2462 13.8981L10.376 13.8785V13.4839C10.376 13.1034 10.3726 13.0896 10.2789 13.0929C10.2252 13.0948 10.1571 13.1064 10.1273 13.1188ZM9.38118 13.3065C9.27839 13.336 9.27249 13.3555 9.26041 13.7047L9.2478 14.072L9.39031 14.0579L9.53254 14.0439L9.54516 13.6553C9.55214 13.4418 9.54221 13.269 9.52342 13.2715C9.50463 13.2739 9.44076 13.2897 9.38118 13.3065ZM8.98103 13.3858C8.91662 13.4035 8.90535 13.4619 8.90535 13.7807C8.90535 13.9866 8.9236 14.1549 8.94588 14.1549C8.96815 14.1549 9.03712 14.1351 9.09912 14.1108C9.20888 14.0681 9.21157 14.0579 9.19922 13.7228C9.18607 13.3657 9.16621 13.3351 8.98103 13.3858ZM33.4392 13.4048C33.565 13.4318 33.6853 13.4704 33.7062 13.4905C33.7271 13.5104 33.5637 13.7325 33.3423 13.9852C32.3353 15.1335 31.5576 16.0392 31.1665 16.5193C30.9328 16.8061 30.7337 17.0409 30.7237 17.0409C30.7138 17.0409 30.8579 16.826 31.0442 16.5636C31.618 15.754 32.2672 14.7802 32.718 14.0519C32.955 13.6691 33.1627 13.3558 33.1794 13.3558C33.196 13.3558 33.313 13.3778 33.4392 13.4048ZM8.17027 13.5729C8.06829 13.6019 8.06131 13.6236 8.0495 13.9458L8.03689 14.288H8.3431V13.9108C8.3431 13.7033 8.32861 13.5355 8.31063 13.5377C8.29292 13.5401 8.22958 13.5561 8.17027 13.5729ZM7.79159 13.6534C7.70035 13.6716 7.69444 13.6947 7.69444 14.0301C7.69444 14.379 7.69659 14.3867 7.79159 14.3605C7.84527 14.3459 7.91344 14.3335 7.94296 14.3332C7.98187 14.3327 7.99717 14.2315 7.99717 13.9775C7.99717 13.6066 8.00066 13.6121 7.79159 13.6534ZM6.8402 13.8736C6.80424 13.8885 6.78599 13.999 6.78599 14.2032V14.5101H7.04551V14.1772C7.04551 13.8325 7.02216 13.7981 6.8402 13.8736ZM6.58068 13.9248C6.48944 13.9381 6.48326 13.9607 6.48326 14.272C6.48326 14.5967 6.48568 14.6041 6.58068 14.5746C6.74225 14.5247 6.75566 14.4864 6.71568 14.1916C6.68106 13.935 6.66952 13.9119 6.58068 13.9248ZM5.92102 14.0659C5.85553 14.0819 5.8142 14.1224 5.81635 14.1682C5.8185 14.2098 5.82333 14.3437 5.82735 14.4658C5.83353 14.6567 5.84668 14.6876 5.92236 14.6876C6.03722 14.6876 6.05789 14.6217 6.04205 14.3035C6.02944 14.0469 6.02595 14.0403 5.92102 14.0659ZM5.56059 14.14C5.54475 14.1563 5.5316 14.2963 5.5316 14.4509C5.5316 14.7212 5.5359 14.7322 5.63976 14.7322C5.74496 14.7322 5.74791 14.7231 5.74791 14.4214C5.74791 14.1497 5.73798 14.1106 5.66874 14.1106C5.625 14.1106 5.57642 14.1238 5.56059 14.14ZM4.91166 14.2734C4.87784 14.3081 4.87247 14.7953 4.90548 14.8292C4.91783 14.8422 4.97634 14.8433 5.03538 14.8314C5.13602 14.8119 5.14246 14.7934 5.14246 14.5272C5.14246 14.2599 5.13656 14.2437 5.04155 14.2437C4.986 14.2437 4.92749 14.2572 4.91166 14.2734ZM4.33143 14.3638C4.2426 14.3814 4.23401 14.4079 4.23401 14.6686C4.23401 14.9436 4.23803 14.9541 4.34216 14.9541C4.44737 14.9541 4.45032 14.9452 4.45032 14.6432C4.45032 14.4724 4.44549 14.3351 4.43958 14.3385C4.43368 14.3418 4.38484 14.3533 4.33143 14.3638ZM3.971 14.4396C3.96107 14.4498 3.95946 14.5796 3.96751 14.7284C3.9812 14.9802 3.98925 14.9984 4.0864 14.9984C4.17604 14.9984 4.1908 14.9775 4.1908 14.8488C4.1908 14.5834 4.14222 14.4214 4.06279 14.4214C4.02226 14.4214 3.98093 14.4297 3.971 14.4396ZM3.37977 14.5465C3.29013 14.5595 3.28235 14.5837 3.28235 14.8491C3.28235 15.1279 3.28584 15.1368 3.37977 15.107C3.51154 15.0654 3.50483 15.0847 3.49007 14.7929C3.478 14.5512 3.46994 14.5333 3.37977 14.5465ZM2.99546 14.805C3.01049 14.9182 3.02283 15.0461 3.02283 15.0894C3.02283 15.1459 3.04698 15.1613 3.10952 15.1445C3.18359 15.1246 3.19593 15.0841 3.19593 14.8601C3.19593 14.6074 3.19218 14.5989 3.08187 14.5989C2.9713 14.5989 2.96862 14.6049 2.99546 14.805ZM2.41738 14.9541C2.41738 15.2087 2.42221 15.2205 2.52553 15.2205C2.62886 15.2205 2.63369 15.2087 2.63369 14.9541C2.63369 14.6994 2.62886 14.6876 2.52553 14.6876C2.42221 14.6876 2.41738 14.6994 2.41738 14.9541ZM2.15786 14.9954C2.15786 15.2547 2.16215 15.2649 2.26816 15.2649C2.37497 15.2649 2.37819 15.2572 2.36558 15.0097C2.35404 14.7835 2.34143 14.7526 2.25528 14.7402C2.16349 14.7267 2.15786 14.7413 2.15786 14.9954ZM27.3749 14.9783C27.1251 15.0092 26.8664 15.0365 26.8004 15.0387C26.7341 15.0411 26.6686 15.0734 26.6549 15.1103C26.6407 15.1483 26.7655 15.4501 26.9391 15.7973C27.2432 16.4057 27.2475 16.419 27.182 16.549C27.0948 16.7221 27.098 16.7891 27.1973 16.8814C27.27 16.9489 27.3468 16.9538 27.8784 16.9266C28.5134 16.8938 28.6559 16.8527 28.7743 16.6673C28.8859 16.4923 28.8655 16.309 28.7208 16.1894C28.6524 16.1327 28.4654 15.851 28.3057 15.5633C28.0225 15.0541 27.9184 14.9034 27.8583 14.916C27.8422 14.9193 27.6245 14.9475 27.3749 14.9783ZM28.5582 16.4862C28.5265 16.5711 28.453 16.5854 27.8838 16.6177C27.4772 16.6408 27.423 16.6356 27.4453 16.5758C27.482 16.4777 27.6699 16.4457 28.3143 16.427C28.5381 16.4206 28.5789 16.4305 28.5582 16.4862ZM26.791 21.9947C26.2161 22.256 26.0768 22.2913 25.7311 22.2623C24.7508 22.1805 24.6711 22.1802 24.3254 22.2549C23.7674 22.3758 23.268 22.3899 22.6381 22.3028C21.9683 22.2102 21.8037 22.2237 21.1223 22.4274C20.8354 22.5131 20.4374 22.6079 20.2378 22.6379C19.7815 22.7063 18.9987 22.6685 18.3599 22.5475C18.1002 22.4982 17.8798 22.4657 17.8704 22.4753C17.8433 22.5032 18.2376 22.6241 18.6374 22.7109C18.9141 22.7707 19.1927 22.79 19.7622 22.7881C20.4458 22.7862 20.584 22.7718 21.1894 22.6409L21.8598 22.496L22.7683 22.5258C23.5764 22.5519 23.7368 22.545 24.2223 22.4618C24.75 22.3712 24.7846 22.3703 25.2787 22.4403C25.8935 22.5269 26.1694 22.493 26.762 22.2582C27.2037 22.0832 27.4182 22.0653 27.8164 22.1714C28.216 22.2777 28.2512 22.2281 27.8932 22.0631C27.4439 21.8559 27.1382 21.8368 26.791 21.9947ZM31.5272 22.0521C31.2167 22.1378 30.56 22.4119 30.5903 22.4431C30.6008 22.4538 30.724 22.4241 30.8638 22.377C31.2355 22.2518 31.7205 22.1777 31.9521 22.2111C32.0632 22.2268 32.3587 22.2819 32.6085 22.3334C32.9961 22.413 33.1031 22.4197 33.3388 22.3786C33.7169 22.3125 33.7545 22.2538 33.4445 22.2149C33.3058 22.1973 32.9977 22.135 32.7599 22.076C32.2537 21.9509 31.9164 21.9443 31.5272 22.0521Z" fill="#04485D"/>
</svg>
