<svg width="22" height="14" viewBox="0 0 22 14" fill="none" xmlns="http://www.w3.org/2000/svg">
<path fill-rule="evenodd" clip-rule="evenodd" d="M12.9883 1.5C12.9883 1.08579 13.3241 0.75 13.7383 0.75H15.2483C18.6934 0.75 21.4983 3.56667 21.4983 7C21.4983 10.4451 18.6816 13.25 15.2483 13.25H13.7383C13.3241 13.25 12.9883 12.9142 12.9883 12.5C12.9883 12.0858 13.3241 11.75 13.7383 11.75H15.2483C17.855 11.75 19.9983 9.6149 19.9983 7C19.9983 4.39333 17.8632 2.25 15.2483 2.25H13.7383C13.3241 2.25 12.9883 1.91421 12.9883 1.5Z" fill="#2D697C"/>
<path fill-rule="evenodd" clip-rule="evenodd" d="M0 7C0 3.55579 2.80579 0.75 6.25 0.75H7.75C8.16421 0.75 8.5 1.08579 8.5 1.5C8.5 1.91421 8.16421 2.25 7.75 2.25H6.25C3.63421 2.25 1.5 4.38421 1.5 7C1.5 9.60667 3.6351 11.75 6.25 11.75H7.75C8.16421 11.75 8.5 12.0858 8.5 12.5C8.5 12.9142 8.16421 13.25 7.75 13.25H6.25C2.8049 13.25 0 10.4333 0 7Z" fill="#2D697C"/>
<path fill-rule="evenodd" clip-rule="evenodd" d="M6 7C6 6.58579 6.33579 6.25 6.75 6.25H14.75C15.1642 6.25 15.5 6.58579 15.5 7C15.5 7.41421 15.1642 7.75 14.75 7.75H6.75C6.33579 7.75 6 7.41421 6 7Z" fill="#2D697C"/>
</svg>
