<svg width="1296" height="993" viewBox="0 0 1296 993" fill="none" xmlns="http://www.w3.org/2000/svg">
<path d="M371.367 717.964C219.089 703.521 101.979 870.934 324.958 870.934C551.5 870.934 400 808 210.5 870.934" stroke="#098572" stroke-width="2" stroke-dasharray="10 8"/>
<path d="M47 749.5C50 789 64.8 838.7 66 843.5C67.5 849.5 29.5 826 71 832C112.5 838 150.5 858.5 153.5 860.5C156.5 862.5 130 879.5 117.5 880.5C105 881.5 29.7552 844.4 16.5 808.5C4.5 776 26.9212 808 36 815.5C48.9524 826.2 96.5 853.5 110 855C123.5 856.5 74.5 723 80.5 556C80.5 542 91 565 89 577.5C87 590 3.49996 715.5 1.99996 762C0.499956 808.5 17.5 839.5 38 858C58.5 876.5 106.5 904 110 905.5C113.5 907 112.74 885.748 106.5 884.5C96.5 882.5 110 904.5 114.5 904.5C119 904.5 148 888.5 152.5 880C157 871.5 153.5 888.5 157.5 890.5C161.5 892.5 208 910.5 303 893C312.5 889.5 206.713 940.36 73.5 928C25 923.5 142.5 1030.5 229 939C173.833 943.333 112.1 943.6 114.5 972C117.5 1007.5 566 990.5 639 957C712 923.5 562 930 546 923.5C530 917 612 893 995 859C1378 825 896 793 873 772" stroke="#098572" stroke-width="2" stroke-dasharray="10 8"/>
<path d="M1426.5 1C1420.5 68 1386.5 88 1293.5 160C1200.5 232 1146.36 225.287 1106 210C1073 197.5 1063 175 1055.5 173.5C1048 172 1047 179.5 1041 184C1035 188.5 1032.61 198.648 1023 210C1019.39 214.267 1012 230 1016.5 235.5C1021 241 1027.69 239.327 1034 226C1043 207 1001 148 996 147.5C991 147 974.418 165.873 965 180C952 199.5 921.099 222.773 909 238C880 274.5 875.5 295.5 859.5 310C843.5 324.5 775.5 342 764.5 341.5C757.964 341.203 741.275 341.255 728 341.37C723.403 341.41 719.215 341.457 716 341.5C727.667 326.667 754.3 294.6 767.5 285C784 273 831.5 229 854 227.5C876.154 226.023 859.5 238 859.5 238C859.5 238 848 245.55 807 243.5C757 241 691.4 255.8 645 335" stroke="#098572" stroke-width="2" stroke-dasharray="10 8"/>
</svg>
