<svg width="24" height="22" viewBox="0 0 24 22" fill="none" xmlns="http://www.w3.org/2000/svg">
<g clip-path="url(#clip0_721_6698)">
<path fill-rule="evenodd" clip-rule="evenodd" d="M19.0445 19.4509L22.6666 2.41384C22.6714 2.39143 22.6684 2.3807 22.6663 2.37468C22.663 2.36561 22.6557 2.35324 22.6425 2.34174C22.6293 2.33024 22.616 2.32471 22.6066 2.32278C22.6004 2.32149 22.5893 2.32001 22.5678 2.32783L1.67607 9.90529L6.28641 11.7937L15.8839 7.33064C16.9446 6.83738 17.8946 8.188 17.0719 9.01955L11.7106 14.4382L19.0445 19.4509ZM11.0182 13.7532C10.5906 14.1853 10.6591 14.8993 11.161 15.2424L18.7719 20.4443C19.212 20.7452 19.8166 20.503 19.9275 19.9816L23.6194 2.6164C23.7906 1.81106 23.0097 1.13143 22.2357 1.41216L0.796487 9.1882C0.152299 9.42185 0.133844 10.3262 0.767962 10.5859L5.91721 12.695C6.16835 12.7979 6.45103 12.7913 6.69712 12.6769L16.2946 8.21384C16.3704 8.17861 16.4382 8.27508 16.3795 8.33448L11.0182 13.7532Z" fill="#014257"/>
<path fill-rule="evenodd" clip-rule="evenodd" d="M8.87334 19.664L5.63281 12.7417L6.5806 12.3828L9.82113 19.3051C9.89242 19.4574 10.1058 19.5061 10.2493 19.4029L13.9904 16.711L14.6328 17.4333L10.8917 20.1252C10.2154 20.6118 9.20942 20.3819 8.87334 19.664Z" fill="#014257"/>
<path fill-rule="evenodd" clip-rule="evenodd" d="M12.6328 15.8411L10.4954 20.3828L9.63281 19.9246L11.7702 15.3828L12.6328 15.8411Z" fill="#014257"/>
</g>
<defs>
<clipPath id="clip0_721_6698">
<rect width="24" height="21" fill="white" transform="translate(0 0.5)"/>
</clipPath>
</defs>
</svg>
