<svg width="29" height="20" viewBox="0 0 29 20" fill="none" xmlns="http://www.w3.org/2000/svg">
<path fill-rule="evenodd" clip-rule="evenodd" d="M25.2641 1.11111H3.73591C2.29161 1.11111 1.12077 2.27185 1.12077 3.7037V16.2963C1.12077 17.7281 2.29161 18.8889 3.73591 18.8889H25.2641C26.7084 18.8889 27.8792 17.7281 27.8792 16.2963V3.7037C27.8792 2.27185 26.7084 1.11111 25.2641 1.11111ZM3.73591 0C1.67262 0 0 1.65821 0 3.7037V16.2963C0 18.3418 1.67262 20 3.73591 20H25.2641C27.3274 20 29 18.3418 29 16.2963V3.7037C29 1.6582 27.3274 0 25.2641 0H3.73591Z" fill="#014257"/>
<path d="M19 11L12 15L12 7L19 11Z" fill="#014257"/>
</svg>
