<svg width="46" height="53" viewBox="0 0 46 53" fill="none" xmlns="http://www.w3.org/2000/svg">
<path d="M46 24.8957C45.8229 25.9715 45.6851 27.0562 45.462 28.1211C44.7468 31.5177 43.3056 34.5829 41.1973 37.3274C41.0989 37.4548 40.9021 37.5075 40.7512 37.5931C40.7818 37.4196 40.7643 37.2176 40.8496 37.0793C42.8682 33.7946 44.1345 30.2421 44.5391 26.4041C44.8693 23.2731 44.3619 20.219 43.24 17.3097C40.1563 9.31538 34.3127 4.61669 25.943 3.27954C16.224 1.72722 8.07961 7.10655 4.14957 14.2226C2.88985 16.5017 2.29062 19.0113 1.92539 21.5737C1.14245 27.043 2.38903 32.093 5.09216 36.8334C5.22338 37.0617 5.3896 37.2813 4.84285 37.4723C4.06865 36.1747 3.16979 34.9034 2.50494 33.518C-0.81711 26.5863 -0.88272 19.5778 2.59461 12.723C6.07631 5.85504 11.7538 1.78431 19.3099 0.403248C19.9834 0.280291 20.6636 0.19027 21.3394 0.0848791C22.0923 -0.0325895 24.0425 -0.0239135 24.7227 0.0848791C25.615 0.227596 26.5095 0.346161 27.3952 0.515226C36.4013 2.23881 43.544 9.26927 45.4686 18.3197C45.6916 19.367 45.8229 20.4341 45.9978 21.4924V24.8957H46Z" fill="#014155"/>
<path d="M36.2907 52.9984C35.5537 52.9392 34.8167 52.8865 34.0819 52.8162C30.0512 52.432 26.2174 51.2792 22.482 49.7599C17.9877 47.9331 13.769 45.5815 9.734 42.8897C9.62902 42.8194 9.53061 42.7382 9.44531 42.624C10.4623 43.0499 11.4705 43.4957 12.4962 43.8975C18.3136 46.17 24.3235 47.6696 30.528 48.3524C32.9687 48.6203 35.4269 48.763 37.8588 48.2624C38.5237 48.1241 39.1973 47.8935 39.7921 47.5708C40.8441 46.9999 41.124 46.0865 40.6691 44.9602C40.492 44.5254 40.247 44.1104 39.989 43.7152C39.7396 43.3354 39.4335 42.995 39.1973 42.5625C39.4859 42.7535 39.7834 42.9358 40.0633 43.14C41.5264 44.2136 42.9042 45.3729 43.7243 47.0504C44.6057 48.8487 44.1552 50.4888 42.4668 51.5537C40.7916 52.612 38.9042 52.8491 36.9818 52.9216C36.7872 52.9282 36.5947 52.9699 36.4001 52.9963H36.2907V52.9984Z" fill="#014155"/>
<path d="M33.325 47.403C34.7509 45.1393 36.1397 42.9327 37.5306 40.726C37.9286 40.0937 38.3179 39.4526 38.7356 38.8334C38.9259 38.5501 38.9128 38.3328 38.7444 38.0408C36.459 34.0798 33.021 31.6756 28.6492 30.648C27.0352 30.2681 25.3446 30.2089 23.6891 30.0112C23.5688 29.9959 23.4441 30.0288 23.2538 30.0442V45.9166C22.1297 45.5828 21.0887 45.2798 20.0521 44.9658C16.2292 43.8109 12.4041 42.6604 8.58563 41.4879C8.31444 41.4045 8.03669 41.2069 7.85299 40.9851C7.30405 40.3264 6.83384 39.6019 6.26741 38.9607C5.9153 38.5633 5.96779 38.2647 6.20836 37.8563C7.67365 35.3708 9.69007 33.4387 12.2007 32.0861C18.4446 28.7202 24.9313 28.0966 31.5863 30.7117C35.1139 32.0971 37.7755 34.5409 39.5361 37.9441C39.722 38.3042 39.7307 38.5721 39.5076 38.9344C37.8805 41.5736 36.2577 44.2149 34.6919 46.8914C34.3441 47.4865 33.9505 47.5304 33.3272 47.403H33.325Z" fill="#014155"/>
<path d="M10.0469 22.9375H36.2209C35.6085 25.6316 35.0027 28.2883 34.4057 30.9121C26.8496 26.7206 19.3613 27.1817 11.8205 31.0373C11.2432 28.4025 10.6527 25.7018 10.0469 22.9375Z" fill="#014155"/>
<path d="M32.759 6.79822C31.3637 6.42057 29.9509 5.94631 28.5009 5.65868C22.3642 4.44228 16.7436 5.56646 11.8972 9.6899C8.0175 12.99 5.78458 17.2891 4.7545 22.249C3.90157 26.3505 4.09403 30.4278 5.13285 34.4722C5.15472 34.5579 5.17222 34.6457 5.11098 34.7687C5.04537 34.6084 4.97539 34.4503 4.91415 34.29C4.84198 34.1034 4.77637 33.9124 4.71295 33.7235C3.52978 30.2456 2.88243 26.6865 3.2236 23C3.86658 16.0551 7.06616 10.656 13.146 7.23955C19.4839 3.6782 26.0362 3.86702 32.6059 6.70161C32.6716 6.73016 32.7284 6.77846 32.759 6.80042V6.79822Z" fill="#014155"/>
<path d="M17.4397 20.6862V18.1063H19.9023V16.3432H22.2008V13.9609H24.1713V16.3235H26.5595V18.0866H29.0614V20.6884H17.4375L17.4397 20.6862Z" fill="#014155"/>
<path d="M11.6562 22.4368V21.1875H34.8472V22.4368H11.6562Z" fill="#014155"/>
</svg>
