<svg width="46" height="53" viewBox="0 0 46 53" fill="none" xmlns="http://www.w3.org/2000/svg">
<path d="M46 24.8957C45.8229 25.9715 45.6851 27.0562 45.462 28.1211C44.7468 31.5177 43.3056 34.5829 41.1973 37.3274C41.0989 37.4548 40.9021 37.5075 40.7512 37.5931C40.7818 37.4196 40.7643 37.2176 40.8496 37.0793C42.8682 33.7946 44.1345 30.2421 44.5391 26.4041C44.8693 23.2731 44.3619 20.219 43.24 17.3097C40.1563 9.31538 34.3127 4.61669 25.943 3.27954C16.224 1.72722 8.07961 7.10655 4.14957 14.2226C2.88985 16.5017 2.29062 19.0113 1.92539 21.5737C1.14245 27.043 2.38903 32.093 5.09216 36.8334C5.22338 37.0617 5.3896 37.2813 4.84285 37.4723C4.06865 36.1747 3.16979 34.9034 2.50494 33.518C-0.81711 26.5863 -0.88272 19.5778 2.59461 12.723C6.07631 5.85504 11.7538 1.78431 19.3099 0.403248C19.9834 0.280291 20.6636 0.19027 21.3394 0.0848791C22.0923 -0.0325895 24.0425 -0.0239135 24.7227 0.0848791C25.615 0.227596 26.5095 0.346161 27.3952 0.515226C36.4013 2.23881 43.544 9.26927 45.4686 18.3197C45.6916 19.367 45.8229 20.4341 45.9978 21.4924V24.8957H46Z" fill="white"/>
<path d="M36.2907 53.0004C35.5537 52.9411 34.8167 52.8884 34.0819 52.8182C30.0512 52.4339 26.2174 51.2812 22.482 49.7618C17.9877 47.935 13.769 45.5835 9.734 42.8916C9.62902 42.8213 9.53061 42.7401 9.44531 42.6259C10.4623 43.0519 11.4705 43.4976 12.4962 43.8994C18.3136 46.1719 24.3235 47.6715 30.528 48.3544C32.9687 48.6223 35.4269 48.765 37.8588 48.2644C38.5237 48.126 39.1973 47.8955 39.7921 47.5727C40.8441 47.0019 41.124 46.0885 40.6691 44.9621C40.492 44.5274 40.247 44.1124 39.989 43.7172C39.7396 43.3373 39.4335 42.997 39.1973 42.5645C39.4859 42.7555 39.7834 42.9377 40.0633 43.1419C41.5264 44.2156 42.9042 45.3749 43.7243 47.0524C44.6057 48.8506 44.1552 50.4908 42.4668 51.5557C40.7916 52.614 38.9042 52.8511 36.9818 52.9235C36.7872 52.9301 36.5947 52.9719 36.4001 52.9982H36.2907V53.0004Z" fill="white"/>
<path d="M33.325 47.3991C34.7509 45.1354 36.1397 42.9288 37.5306 40.7221C37.9286 40.0898 38.3179 39.4487 38.7356 38.8295C38.9259 38.5462 38.9128 38.3289 38.7444 38.0369C36.459 34.0759 33.021 31.6716 28.6492 30.6441C27.0352 30.2642 25.3446 30.205 23.6891 30.0073C23.5688 29.992 23.4441 30.0249 23.2538 30.0403V45.9127C22.1297 45.5789 21.0887 45.2759 20.0521 44.9619C16.2292 43.807 12.4041 42.6565 8.58563 41.484C8.31444 41.4006 8.03669 41.203 7.85299 40.9812C7.30405 40.3225 6.83384 39.598 6.26741 38.9568C5.9153 38.5594 5.96779 38.2608 6.20836 37.8524C7.67365 35.3669 9.69007 33.4348 12.2007 32.0822C18.4446 28.7163 24.9313 28.0927 31.5863 30.7078C35.1139 32.0932 37.7755 34.537 39.5361 37.9402C39.722 38.3003 39.7307 38.5682 39.5076 38.9305C37.8805 41.5697 36.2577 44.211 34.6919 46.8875C34.3441 47.4826 33.9505 47.5265 33.3272 47.3991H33.325Z" fill="white"/>
<path d="M10.0508 22.9375H36.2248C35.6124 25.6316 35.0066 28.2883 34.4096 30.9121C26.8535 26.7206 19.3652 27.1817 11.8244 31.0373C11.2471 28.4025 10.6566 25.7018 10.0508 22.9375Z" fill="white"/>
<path d="M32.759 6.79822C31.3637 6.42057 29.9509 5.94631 28.5009 5.65868C22.3642 4.44228 16.7436 5.56646 11.8972 9.6899C8.0175 12.99 5.78458 17.2891 4.7545 22.249C3.90157 26.3505 4.09403 30.4278 5.13285 34.4722C5.15472 34.5579 5.17222 34.6457 5.11098 34.7687C5.04537 34.6084 4.97539 34.4503 4.91415 34.29C4.84198 34.1034 4.77637 33.9124 4.71295 33.7235C3.52978 30.2456 2.88243 26.6865 3.2236 23C3.86658 16.0551 7.06616 10.656 13.146 7.23955C19.4839 3.6782 26.0362 3.86702 32.6059 6.70161C32.6716 6.73016 32.7284 6.77846 32.759 6.80042V6.79822Z" fill="white"/>
<path d="M17.4397 20.6843V18.1044H19.9023V16.3413H22.2008V13.959H24.1713V16.3215H26.5595V18.0846H29.0614V20.6865H17.4375L17.4397 20.6843Z" fill="white"/>
<path d="M11.6523 22.4407V21.1914H34.8433V22.4407H11.6523Z" fill="white"/>
</svg>
